<?xml version="1.0" encoding="UTF-8" standalone="no"?>
<!DOCTYPE svg PUBLIC "-//W3C//DTD SVG 1.1//EN" "http://www.w3.org/Graphics/SVG/1.1/DTD/svg11.dtd">
<svg width="100%" height="100%" viewBox="0 0 700 700" version="1.1"
     xmlns="http://www.w3.org/2000/svg" xml:space="preserve"
     style="fill-rule:evenodd;clip-rule:evenodd;stroke-linecap:round;stroke-linejoin:round;stroke-miterlimit:1.5;">


    <g style="fill:none; stroke:black; stroke-width:1px;" transform="translate(0 150)">
        <line x1="25" y1="0" x2="75" y2="0"/>
        <line x1="75" y1="0" x2="100" y2="50"/>
        <line x1="100" y1="50" x2="75" y2="100"/>
        <line x1="75" y1="100" x2="25" y2="100"/>
        <line x1="25" y1="100" x2="0" y2="50"/>
        <line x1="0" y1="50" x2="25" y2="0"/>
    </g>
    <g style="fill:none; stroke:black; stroke-width:1px;" transform="translate(0 250)">
        <line x1="25" y1="0" x2="75" y2="0"/>
        <line x1="75" y1="0" x2="100" y2="50"/>
        <line x1="100" y1="50" x2="75" y2="100"/>
        <line x1="75" y1="100" x2="25" y2="100"/>
        <line x1="25" y1="100" x2="0" y2="50"/>
        <line x1="0" y1="50" x2="25" y2="0"/>
    </g>
    <g style="fill:none; stroke:black; stroke-width:1px;" transform="translate(0 350)">
        <line x1="25" y1="0" x2="75" y2="0"/>
        <line x1="75" y1="0" x2="100" y2="50"/>
        <line x1="100" y1="50" x2="75" y2="100"/>
        <line x1="75" y1="100" x2="25" y2="100"/>
        <line x1="25" y1="100" x2="0" y2="50"/>
        <line x1="0" y1="50" x2="25" y2="0"/>
    </g>
    <g style="fill:none; stroke:black; stroke-width:1px;" transform="translate(0 450)">
        <line x1="25" y1="0" x2="75" y2="0"/>
        <line x1="75" y1="0" x2="100" y2="50"/>
        <line x1="100" y1="50" x2="75" y2="100"/>
        <line x1="75" y1="100" x2="25" y2="100"/>
        <line x1="25" y1="100" x2="0" y2="50"/>
        <line x1="0" y1="50" x2="25" y2="0"/>
    </g>


    <g style="fill:none; stroke:black; stroke-width:1px;" transform="translate(75 100)">
        <line x1="25" y1="0" x2="75" y2="0"/>
        <line x1="75" y1="0" x2="100" y2="50"/>
        <line x1="100" y1="50" x2="75" y2="100"/>
        <line x1="75" y1="100" x2="25" y2="100"/>
        <line x1="25" y1="100" x2="0" y2="50"/>
        <line x1="0" y1="50" x2="25" y2="0"/>
    </g>
    <g style="fill:none; stroke:black; stroke-width:1px;" transform="translate(75 200)">
        <line x1="25" y1="0" x2="75" y2="0"/>
        <line x1="75" y1="0" x2="100" y2="50"/>
        <line x1="100" y1="50" x2="75" y2="100"/>
        <line x1="75" y1="100" x2="25" y2="100"/>
        <line x1="25" y1="100" x2="0" y2="50"/>
        <line x1="0" y1="50" x2="25" y2="0"/>
    </g>
    <g style="fill:none; stroke:black; stroke-width:1px;" transform="translate(75 300)">
        <line x1="25" y1="0" x2="75" y2="0"/>
        <line x1="75" y1="0" x2="100" y2="50"/>
        <line x1="100" y1="50" x2="75" y2="100"/>
        <line x1="75" y1="100" x2="25" y2="100"/>
        <line x1="25" y1="100" x2="0" y2="50"/>
        <line x1="0" y1="50" x2="25" y2="0"/>
    </g>
    <g style="fill:none; stroke:black; stroke-width:1px;" transform="translate(75 400)">
        <line x1="25" y1="0" x2="75" y2="0"/>
        <line x1="75" y1="0" x2="100" y2="50"/>
        <line x1="100" y1="50" x2="75" y2="100"/>
        <line x1="75" y1="100" x2="25" y2="100"/>
        <line x1="25" y1="100" x2="0" y2="50"/>
        <line x1="0" y1="50" x2="25" y2="0"/>
    </g>
    <g style="fill:none; stroke:black; stroke-width:1px;" transform="translate(75 500)">
        <line x1="25" y1="0" x2="75" y2="0"/>
        <line x1="75" y1="0" x2="100" y2="50"/>
        <line x1="100" y1="50" x2="75" y2="100"/>
        <line x1="75" y1="100" x2="25" y2="100"/>
        <line x1="25" y1="100" x2="0" y2="50"/>
        <line x1="0" y1="50" x2="25" y2="0"/>
    </g>


    <g style="fill:none; stroke:black; stroke-width:1px;" transform="translate(150 50)">
        <line x1="25" y1="0" x2="75" y2="0"/>
        <line x1="75" y1="0" x2="100" y2="50"/>
        <line x1="100" y1="50" x2="75" y2="100"/>
        <line x1="75" y1="100" x2="25" y2="100"/>
        <line x1="25" y1="100" x2="0" y2="50"/>
        <line x1="0" y1="50" x2="25" y2="0"/>
    </g>
    <g style="fill:none; stroke:black; stroke-width:1px;" transform="translate(150 150)">
        <line x1="25" y1="0" x2="75" y2="0"/>
        <line x1="75" y1="0" x2="100" y2="50"/>
        <line x1="100" y1="50" x2="75" y2="100"/>
        <line x1="75" y1="100" x2="25" y2="100"/>
        <line x1="25" y1="100" x2="0" y2="50"/>
        <line x1="0" y1="50" x2="25" y2="0"/>
    </g>
    <g style="fill:none; stroke:black; stroke-width:1px;" transform="translate(150 250)">
        <line x1="25" y1="0" x2="75" y2="0"/>
        <line x1="75" y1="0" x2="100" y2="50"/>
        <line x1="100" y1="50" x2="75" y2="100"/>
        <line x1="75" y1="100" x2="25" y2="100"/>
        <line x1="25" y1="100" x2="0" y2="50"/>
        <line x1="0" y1="50" x2="25" y2="0"/>
    </g>
    <g style="fill:none; stroke:black; stroke-width:1px;" transform="translate(150 350)">
        <line x1="25" y1="0" x2="75" y2="0"/>
        <line x1="75" y1="0" x2="100" y2="50"/>
        <line x1="100" y1="50" x2="75" y2="100"/>
        <line x1="75" y1="100" x2="25" y2="100"/>
        <line x1="25" y1="100" x2="0" y2="50"/>
        <line x1="0" y1="50" x2="25" y2="0"/>
    </g>
    <g style="fill:none; stroke:black; stroke-width:1px;" transform="translate(150 450)">
        <line x1="25" y1="0" x2="75" y2="0"/>
        <line x1="75" y1="0" x2="100" y2="50"/>
        <line x1="100" y1="50" x2="75" y2="100"/>
        <line x1="75" y1="100" x2="25" y2="100"/>
        <line x1="25" y1="100" x2="0" y2="50"/>
        <line x1="0" y1="50" x2="25" y2="0"/>
    </g>
    <g style="fill:none; stroke:black; stroke-width:1px;" transform="translate(150 550)">
        <line x1="25" y1="0" x2="75" y2="0"/>
        <line x1="75" y1="0" x2="100" y2="50"/>
        <line x1="100" y1="50" x2="75" y2="100"/>
        <line x1="75" y1="100" x2="25" y2="100"/>
        <line x1="25" y1="100" x2="0" y2="50"/>
        <line x1="0" y1="50" x2="25" y2="0"/>
    </g>


    <g style="fill:none; stroke:black; stroke-width:1px;" transform="translate(225 0)">
        <line x1="25" y1="0" x2="75" y2="0"/>
        <line x1="75" y1="0" x2="100" y2="50"/>
        <line x1="100" y1="50" x2="75" y2="100"/>
        <line x1="75" y1="100" x2="25" y2="100"/>
        <line x1="25" y1="100" x2="0" y2="50"/>
        <line x1="0" y1="50" x2="25" y2="0"/>
    </g>
    <g style="fill:none; stroke:black; stroke-width:1px;" transform="translate(225 100)">
        <line x1="25" y1="0" x2="75" y2="0"/>
        <line x1="75" y1="0" x2="100" y2="50"/>
        <line x1="100" y1="50" x2="75" y2="100"/>
        <line x1="75" y1="100" x2="25" y2="100"/>
        <line x1="25" y1="100" x2="0" y2="50"/>
        <line x1="0" y1="50" x2="25" y2="0"/>
    </g>
    <g style="fill:none; stroke:black; stroke-width:1px;" transform="translate(225 200)">
        <line x1="25" y1="0" x2="75" y2="0"/>
        <line x1="75" y1="0" x2="100" y2="50"/>
        <line x1="100" y1="50" x2="75" y2="100"/>
        <line x1="75" y1="100" x2="25" y2="100"/>
        <line x1="25" y1="100" x2="0" y2="50"/>
        <line x1="0" y1="50" x2="25" y2="0"/>
    </g>
    <g style="fill:none; stroke:black; stroke-width:1px;" transform="translate(225 300)">
        <line x1="25" y1="0" x2="75" y2="0"/>
        <line x1="75" y1="0" x2="100" y2="50"/>
        <line x1="100" y1="50" x2="75" y2="100"/>
        <line x1="75" y1="100" x2="25" y2="100"/>
        <line x1="25" y1="100" x2="0" y2="50"/>
        <line x1="0" y1="50" x2="25" y2="0"/>
    </g>
    <g style="fill:none; stroke:black; stroke-width:1px;" transform="translate(225 400)">
        <line x1="25" y1="0" x2="75" y2="0"/>
        <line x1="75" y1="0" x2="100" y2="50"/>
        <line x1="100" y1="50" x2="75" y2="100"/>
        <line x1="75" y1="100" x2="25" y2="100"/>
        <line x1="25" y1="100" x2="0" y2="50"/>
        <line x1="0" y1="50" x2="25" y2="0"/>
    </g>
    <g style="fill:none; stroke:black; stroke-width:1px;" transform="translate(225 500)">
        <line x1="25" y1="0" x2="75" y2="0"/>
        <line x1="75" y1="0" x2="100" y2="50"/>
        <line x1="100" y1="50" x2="75" y2="100"/>
        <line x1="75" y1="100" x2="25" y2="100"/>
        <line x1="25" y1="100" x2="0" y2="50"/>
        <line x1="0" y1="50" x2="25" y2="0"/>
    </g>
    <g style="fill:none; stroke:black; stroke-width:1px;" transform="translate(225 600)">
        <line x1="25" y1="0" x2="75" y2="0"/>
        <line x1="75" y1="0" x2="100" y2="50"/>
        <line x1="100" y1="50" x2="75" y2="100"/>
        <line x1="75" y1="100" x2="25" y2="100"/>
        <line x1="25" y1="100" x2="0" y2="50"/>
        <line x1="0" y1="50" x2="25" y2="0"/>
    </g>


    <g style="fill:none; stroke:black; stroke-width:1px;" transform="translate(300 50)">
        <line x1="25" y1="0" x2="75" y2="0"/>
        <line x1="75" y1="0" x2="100" y2="50"/>
        <line x1="100" y1="50" x2="75" y2="100"/>
        <line x1="75" y1="100" x2="25" y2="100"/>
        <line x1="25" y1="100" x2="0" y2="50"/>
        <line x1="0" y1="50" x2="25" y2="0"/>
    </g>
    <g style="fill:none; stroke:black; stroke-width:1px;" transform="translate(300 150)">
        <line x1="25" y1="0" x2="75" y2="0"/>
        <line x1="75" y1="0" x2="100" y2="50"/>
        <line x1="100" y1="50" x2="75" y2="100"/>
        <line x1="75" y1="100" x2="25" y2="100"/>
        <line x1="25" y1="100" x2="0" y2="50"/>
        <line x1="0" y1="50" x2="25" y2="0"/>
    </g>
    <g style="fill:none; stroke:black; stroke-width:1px;" transform="translate(300 250)">
        <line x1="25" y1="0" x2="75" y2="0"/>
        <line x1="75" y1="0" x2="100" y2="50"/>
        <line x1="100" y1="50" x2="75" y2="100"/>
        <line x1="75" y1="100" x2="25" y2="100"/>
        <line x1="25" y1="100" x2="0" y2="50"/>
        <line x1="0" y1="50" x2="25" y2="0"/>
    </g>
    <g style="fill:none; stroke:black; stroke-width:1px;" transform="translate(300 350)">
        <line x1="25" y1="0" x2="75" y2="0"/>
        <line x1="75" y1="0" x2="100" y2="50"/>
        <line x1="100" y1="50" x2="75" y2="100"/>
        <line x1="75" y1="100" x2="25" y2="100"/>
        <line x1="25" y1="100" x2="0" y2="50"/>
        <line x1="0" y1="50" x2="25" y2="0"/>
    </g>
    <g style="fill:none; stroke:black; stroke-width:1px;" transform="translate(300 450)">
        <line x1="25" y1="0" x2="75" y2="0"/>
        <line x1="75" y1="0" x2="100" y2="50"/>
        <line x1="100" y1="50" x2="75" y2="100"/>
        <line x1="75" y1="100" x2="25" y2="100"/>
        <line x1="25" y1="100" x2="0" y2="50"/>
        <line x1="0" y1="50" x2="25" y2="0"/>
    </g>
    <g style="fill:none; stroke:black; stroke-width:1px;" transform="translate(300 550)">
        <line x1="25" y1="0" x2="75" y2="0"/>
        <line x1="75" y1="0" x2="100" y2="50"/>
        <line x1="100" y1="50" x2="75" y2="100"/>
        <line x1="75" y1="100" x2="25" y2="100"/>
        <line x1="25" y1="100" x2="0" y2="50"/>
        <line x1="0" y1="50" x2="25" y2="0"/>
    </g>


    <g style="fill:none; stroke:black; stroke-width:1px;" transform="translate(375 100)">
        <line x1="25" y1="0" x2="75" y2="0"/>
        <line x1="75" y1="0" x2="100" y2="50"/>
        <line x1="100" y1="50" x2="75" y2="100"/>
        <line x1="75" y1="100" x2="25" y2="100"/>
        <line x1="25" y1="100" x2="0" y2="50"/>
        <line x1="0" y1="50" x2="25" y2="0"/>
    </g>
    <g style="fill:none; stroke:black; stroke-width:1px;" transform="translate(375 200)">
        <line x1="25" y1="0" x2="75" y2="0"/>
        <line x1="75" y1="0" x2="100" y2="50"/>
        <line x1="100" y1="50" x2="75" y2="100"/>
        <line x1="75" y1="100" x2="25" y2="100"/>
        <line x1="25" y1="100" x2="0" y2="50"/>
        <line x1="0" y1="50" x2="25" y2="0"/>
    </g>
    <g style="fill:none; stroke:black; stroke-width:1px;" transform="translate(375 300)">
        <line x1="25" y1="0" x2="75" y2="0"/>
        <line x1="75" y1="0" x2="100" y2="50"/>
        <line x1="100" y1="50" x2="75" y2="100"/>
        <line x1="75" y1="100" x2="25" y2="100"/>
        <line x1="25" y1="100" x2="0" y2="50"/>
        <line x1="0" y1="50" x2="25" y2="0"/>
    </g>
    <g style="fill:none; stroke:black; stroke-width:1px;" transform="translate(375 400)">
        <line x1="25" y1="0" x2="75" y2="0"/>
        <line x1="75" y1="0" x2="100" y2="50"/>
        <line x1="100" y1="50" x2="75" y2="100"/>
        <line x1="75" y1="100" x2="25" y2="100"/>
        <line x1="25" y1="100" x2="0" y2="50"/>
        <line x1="0" y1="50" x2="25" y2="0"/>
    </g>
    <g style="fill:none; stroke:black; stroke-width:1px;" transform="translate(375 500)">
        <line x1="25" y1="0" x2="75" y2="0"/>
        <line x1="75" y1="0" x2="100" y2="50"/>
        <line x1="100" y1="50" x2="75" y2="100"/>
        <line x1="75" y1="100" x2="25" y2="100"/>
        <line x1="25" y1="100" x2="0" y2="50"/>
        <line x1="0" y1="50" x2="25" y2="0"/>
    </g>


    <g style="fill:none; stroke:black; stroke-width:1px;" transform="translate(450 150)">
        <line x1="25" y1="0" x2="75" y2="0"/>
        <line x1="75" y1="0" x2="100" y2="50"/>
        <line x1="100" y1="50" x2="75" y2="100"/>
        <line x1="75" y1="100" x2="25" y2="100"/>
        <line x1="25" y1="100" x2="0" y2="50"/>
        <line x1="0" y1="50" x2="25" y2="0"/>
    </g>
    <g style="fill:none; stroke:black; stroke-width:1px;" transform="translate(450 250)">
        <line x1="25" y1="0" x2="75" y2="0"/>
        <line x1="75" y1="0" x2="100" y2="50"/>
        <line x1="100" y1="50" x2="75" y2="100"/>
        <line x1="75" y1="100" x2="25" y2="100"/>
        <line x1="25" y1="100" x2="0" y2="50"/>
        <line x1="0" y1="50" x2="25" y2="0"/>
    </g>
    <g style="fill:none; stroke:black; stroke-width:1px;" transform="translate(450 350)">
        <line x1="25" y1="0" x2="75" y2="0"/>
        <line x1="75" y1="0" x2="100" y2="50"/>
        <line x1="100" y1="50" x2="75" y2="100"/>
        <line x1="75" y1="100" x2="25" y2="100"/>
        <line x1="25" y1="100" x2="0" y2="50"/>
        <line x1="0" y1="50" x2="25" y2="0"/>
    </g>
    <g style="fill:none; stroke:black; stroke-width:1px;" transform="translate(450 450)">
        <line x1="25" y1="0" x2="75" y2="0"/>
        <line x1="75" y1="0" x2="100" y2="50"/>
        <line x1="100" y1="50" x2="75" y2="100"/>
        <line x1="75" y1="100" x2="25" y2="100"/>
        <line x1="25" y1="100" x2="0" y2="50"/>
        <line x1="0" y1="50" x2="25" y2="0"/>
    </g>


</svg>
